<?xml version="1.0" encoding="UTF-8" standalone="no"?>
<!-- Created with Inkscape (http://www.inkscape.org/) -->

<svg
   width="256"
   height="256"
   viewBox="0 0 67.733332 67.733333"
   version="1.1"
   id="svg1"
   xml:space="preserve"
   inkscape:version="1.4.2 (ebf0e940, 2025-05-08)"
   sodipodi:docname="favicon.svg"
   inkscape:export-filename="icon.png"
   inkscape:export-xdpi="96"
   inkscape:export-ydpi="96"
   xmlns:inkscape="http://www.inkscape.org/namespaces/inkscape"
   xmlns:sodipodi="http://sodipodi.sourceforge.net/DTD/sodipodi-0.dtd"
   xmlns="http://www.w3.org/2000/svg"
   xmlns:svg="http://www.w3.org/2000/svg"><sodipodi:namedview
     id="namedview1"
     pagecolor="#ffffff"
     bordercolor="#000000"
     borderopacity="0.25"
     inkscape:showpageshadow="2"
     inkscape:pageopacity="0.0"
     inkscape:pagecheckerboard="0"
     inkscape:deskcolor="#d1d1d1"
     inkscape:document-units="px"
     inkscape:zoom="2.767967"
     inkscape:cx="120.48554"
     inkscape:cy="126.4466"
     inkscape:window-width="1920"
     inkscape:window-height="993"
     inkscape:window-x="0"
     inkscape:window-y="477"
     inkscape:window-maximized="0"
     inkscape:current-layer="svg1"
     inkscape:export-bgcolor="#ffffffff" /><defs
     id="defs1" /><rect
     style="fill:#e6e3da;stroke:none;stroke-width:5.39565;stroke-linecap:round;stroke-linejoin:round;stroke-dasharray:none;stroke-opacity:1;paint-order:stroke fill markers"
     id="rect3"
     width="67.73333"
     height="67.73333"
     x="0"
     y="0"
     ry="11.757276" /><path
     id="path2"
     style="baseline-shift:baseline;display:inline;overflow:visible;opacity:1;stroke:#ffffff;stroke-width:7.47368532;stroke-linecap:round;stroke-linejoin:round;stroke-dasharray:none;stroke-opacity:1;paint-order:stroke fill markers;enable-background:accumulate;stop-color:#000000;stop-opacity:1"
     d="m 56.395348,13.668781 a 2.5002023,2.5002023 0 0 0 -0.672961,0.1203 c -14.416985,4.67585 -29.442659,7.483503 -44.561519,7.95252 a 2.5002023,2.5002023 0 0 0 -1.7018496,4.255303 l 6.7341346,6.828657 2.521795,18.727588 a 2.5002023,2.5002023 0 0 0 4.071686,1.592402 l 6.678507,-5.518914 4.156712,5.447006 a 2.5002023,2.5002023 0 0 0 4.293293,-0.550851 c 1.414563,-3.380841 2.859777,-6.731426 4.403193,-10.015273 a 2.5002023,2.5002023 0 0 0 0.01131,-0.02487 c 4.085107,-8.952313 9.533428,-17.264461 16.042074,-24.664841 a 2.5002023,2.5002023 0 0 0 -1.976371,-4.149023 z m -6.441975,6.984685 c -4.689424,6.164803 -8.936531,12.666627 -12.161242,19.728437 -0.0029,0.0061 -0.0062,0.01201 -0.009,0.01809 -9.71e-4,0.0022 -0.0012,0.0046 -0.0023,0.0068 -0.975245,2.075829 -1.851087,4.173663 -2.754709,6.266499 l -7.144333,-9.364019 a 2.5002023,2.5002023 0 0 0 -4.324499,0.629543 l -1.203009,3.17124 -1.316525,-9.778289 a 2.5002023,2.5002023 0 0 0 -0.69874,-1.421901 L 16.836271,26.357824 C 28.051137,25.603759 39.144025,23.65617 49.953379,20.653483 Z" /></svg>
